<svg width="229" height="200" viewBox="0 0 229 200" fill="none" xmlns="http://www.w3.org/2000/svg">
<path d="M181.041 0H14.8767C6.66053 0 0 6.66053 0 14.8767V174.062C0 182.278 6.66053 188.939 14.8767 188.939H181.041C189.257 188.939 195.918 182.278 195.918 174.062V14.8767C195.918 6.66053 189.257 0 181.041 0Z" fill="white"/>
<path d="M27.6914 40.6556V30.8556H33.6554V31.8216H28.8674V35.2656H32.9414V36.2176H28.8674V40.6556H27.6914ZM37.5431 40.8236C36.8898 40.8236 36.3018 40.6742 35.7791 40.3756C35.2564 40.0769 34.8411 39.6569 34.5331 39.1156C34.2344 38.5649 34.0851 37.9209 34.0851 37.1836C34.0851 36.4462 34.2391 35.8069 34.5471 35.2656C34.8551 34.7149 35.2704 34.2902 35.7931 33.9916C36.3251 33.6929 36.9178 33.5436 37.5711 33.5436C38.2244 33.5436 38.8124 33.6929 39.3351 33.9916C39.8578 34.2902 40.2684 34.7149 40.5671 35.2656C40.8751 35.8069 41.0291 36.4462 41.0291 37.1836C41.0291 37.9209 40.8751 38.5649 40.5671 39.1156C40.2591 39.6569 39.8391 40.0769 39.3071 40.3756C38.7844 40.6742 38.1964 40.8236 37.5431 40.8236ZM37.5431 39.8156C37.9444 39.8156 38.3178 39.7176 38.6631 39.5216C39.0084 39.3256 39.2884 39.0316 39.5031 38.6396C39.7178 38.2476 39.8251 37.7622 39.8251 37.1836C39.8251 36.6049 39.7178 36.1196 39.5031 35.7276C39.2978 35.3356 39.0224 35.0416 38.6771 34.8456C38.3318 34.6496 37.9631 34.5516 37.5711 34.5516C37.1698 34.5516 36.7964 34.6496 36.4511 34.8456C36.1058 35.0416 35.8258 35.3356 35.6111 35.7276C35.3964 36.1196 35.2891 36.6049 35.2891 37.1836C35.2891 37.7622 35.3964 38.2476 35.6111 38.6396C35.8258 39.0316 36.1011 39.3256 36.4371 39.5216C36.7824 39.7176 37.1511 39.8156 37.5431 39.8156ZM42.2443 40.6556V30.5756H43.4203V40.6556H42.2443ZM44.9278 40.6556V30.5756H46.1038V40.6556H44.9278ZM50.7753 40.8236C50.122 40.8236 49.534 40.6742 49.0113 40.3756C48.4886 40.0769 48.0733 39.6569 47.7653 39.1156C47.4666 38.5649 47.3173 37.9209 47.3173 37.1836C47.3173 36.4462 47.4713 35.8069 47.7793 35.2656C48.0873 34.7149 48.5026 34.2902 49.0253 33.9916C49.5573 33.6929 50.15 33.5436 50.8033 33.5436C51.4566 33.5436 52.0446 33.6929 52.5673 33.9916C53.09 34.2902 53.5006 34.7149 53.7993 35.2656C54.1073 35.8069 54.2613 36.4462 54.2613 37.1836C54.2613 37.9209 54.1073 38.5649 53.7993 39.1156C53.4913 39.6569 53.0713 40.0769 52.5393 40.3756C52.0166 40.6742 51.4286 40.8236 50.7753 40.8236ZM50.7753 39.8156C51.1766 39.8156 51.55 39.7176 51.8953 39.5216C52.2406 39.3256 52.5206 39.0316 52.7353 38.6396C52.95 38.2476 53.0573 37.7622 53.0573 37.1836C53.0573 36.6049 52.95 36.1196 52.7353 35.7276C52.53 35.3356 52.2546 35.0416 51.9093 34.8456C51.564 34.6496 51.1953 34.5516 50.8033 34.5516C50.402 34.5516 50.0286 34.6496 49.6833 34.8456C49.338 35.0416 49.058 35.3356 48.8433 35.7276C48.6286 36.1196 48.5213 36.6049 48.5213 37.1836C48.5213 37.7622 48.6286 38.2476 48.8433 38.6396C49.058 39.0316 49.3333 39.3256 49.6693 39.5216C50.0146 39.7176 50.3833 39.8156 50.7753 39.8156ZM56.6167 40.6556L54.5867 33.7116H55.7627L57.2327 39.1576L58.8567 33.7116H60.1867L61.8247 39.1576L63.2807 33.7116H64.4707L62.4407 40.6556H61.2367L59.5287 34.9296L57.8207 40.6556H56.6167ZM68.2136 40.8236C67.5509 40.8236 66.9629 40.6742 66.4496 40.3756C65.9363 40.0676 65.5303 39.6429 65.2316 39.1016C64.9423 38.5602 64.7976 37.9209 64.7976 37.1836C64.7976 36.4556 64.9423 35.8209 65.2316 35.2796C65.5209 34.7289 65.9223 34.3042 66.4356 34.0056C66.9583 33.6976 67.5603 33.5436 68.2416 33.5436C68.9136 33.5436 69.4923 33.6976 69.9776 34.0056C70.4723 34.3042 70.8503 34.7009 71.1116 35.1956C71.3729 35.6902 71.5036 36.2222 71.5036 36.7916C71.5036 36.8942 71.4989 36.9969 71.4896 37.0996C71.4896 37.2022 71.4896 37.3189 71.4896 37.4496H65.9596C65.9876 37.9816 66.1089 38.4249 66.3236 38.7796C66.5476 39.1249 66.8229 39.3862 67.1496 39.5636C67.4856 39.7409 67.8403 39.8296 68.2136 39.8296C68.6989 39.8296 69.1049 39.7176 69.4316 39.4936C69.7583 39.2696 69.9963 38.9662 70.1456 38.5836H71.3076C71.1209 39.2276 70.7616 39.7642 70.2296 40.1936C69.7069 40.6136 69.0349 40.8236 68.2136 40.8236ZM68.2136 34.5376C67.6536 34.5376 67.1543 34.7102 66.7156 35.0556C66.2863 35.3916 66.0389 35.8862 65.9736 36.5396H70.3416C70.3136 35.9142 70.0989 35.4242 69.6976 35.0696C69.2963 34.7149 68.8016 34.5376 68.2136 34.5376ZM72.6423 40.6556V33.7116H73.7063L73.8043 35.0416C74.019 34.5842 74.3456 34.2202 74.7843 33.9496C75.223 33.6789 75.7643 33.5436 76.4083 33.5436V34.7756H76.0863C75.6756 34.7756 75.2976 34.8502 74.9523 34.9996C74.607 35.1396 74.3316 35.3822 74.1263 35.7276C73.921 36.0729 73.8183 36.5489 73.8183 37.1556V40.6556H72.6423ZM84.8773 40.8236C83.9627 40.8236 83.16 40.6136 82.4693 40.1936C81.7787 39.7642 81.242 39.1716 80.8593 38.4156C80.4767 37.6502 80.2853 36.7682 80.2853 35.7696C80.2853 34.7709 80.4767 33.8889 80.8593 33.1236C81.2513 32.3582 81.802 31.7609 82.5113 31.3316C83.23 30.9022 84.0747 30.6876 85.0453 30.6876C86.1467 30.6876 87.0613 30.9536 87.7893 31.4856C88.5267 32.0176 89.0027 32.7502 89.2173 33.6836H87.8593C87.7287 33.0956 87.416 32.6289 86.9213 32.2836C86.436 31.9382 85.8107 31.7656 85.0453 31.7656C84.3267 31.7656 83.7013 31.9289 83.1693 32.2556C82.6373 32.5729 82.222 33.0302 81.9233 33.6276C81.634 34.2249 81.4893 34.9389 81.4893 35.7696C81.4893 36.6002 81.634 37.3142 81.9233 37.9116C82.2127 38.5089 82.614 38.9709 83.1273 39.2976C83.6407 39.6149 84.238 39.7736 84.9193 39.7736C85.9647 39.7736 86.7533 39.4702 87.2853 38.8636C87.8173 38.2476 88.1207 37.4076 88.1953 36.3436H85.3673V35.4196H89.3993V40.6556H88.3213L88.2233 39.0456C87.8687 39.6149 87.4347 40.0536 86.9213 40.3616C86.408 40.6696 85.7267 40.8236 84.8773 40.8236ZM90.769 40.6556V33.7116H91.833L91.931 35.0416C92.1457 34.5842 92.4724 34.2202 92.911 33.9496C93.3497 33.6789 93.891 33.5436 94.535 33.5436V34.7756H94.213C93.8024 34.7756 93.4244 34.8502 93.079 34.9996C92.7337 35.1396 92.4584 35.3822 92.253 35.7276C92.0477 36.0729 91.945 36.5489 91.945 37.1556V40.6556H90.769ZM98.3392 40.8236C97.6859 40.8236 97.0979 40.6742 96.5752 40.3756C96.0525 40.0769 95.6372 39.6569 95.3292 39.1156C95.0305 38.5649 94.8812 37.9209 94.8812 37.1836C94.8812 36.4462 95.0352 35.8069 95.3432 35.2656C95.6512 34.7149 96.0665 34.2902 96.5892 33.9916C97.1212 33.6929 97.7139 33.5436 98.3672 33.5436C99.0205 33.5436 99.6085 33.6929 100.131 33.9916C100.654 34.2902 101.064 34.7149 101.363 35.2656C101.671 35.8069 101.825 36.4462 101.825 37.1836C101.825 37.9209 101.671 38.5649 101.363 39.1156C101.055 39.6569 100.635 40.0769 100.103 40.3756C99.5805 40.6742 98.9925 40.8236 98.3392 40.8236ZM98.3392 39.8156C98.7405 39.8156 99.1139 39.7176 99.4592 39.5216C99.8045 39.3256 100.084 39.0316 100.299 38.6396C100.514 38.2476 100.621 37.7622 100.621 37.1836C100.621 36.6049 100.514 36.1196 100.299 35.7276C100.094 35.3356 99.8185 35.0416 99.4732 34.8456C99.1279 34.6496 98.7592 34.5516 98.3672 34.5516C97.9659 34.5516 97.5925 34.6496 97.2472 34.8456C96.9019 35.0416 96.6219 35.3356 96.4072 35.7276C96.1925 36.1196 96.0852 36.6049 96.0852 37.1836C96.0852 37.7622 96.1925 38.2476 96.4072 38.6396C96.6219 39.0316 96.8972 39.3256 97.2332 39.5216C97.5785 39.7176 97.9472 39.8156 98.3392 39.8156ZM104.18 40.6556L102.15 33.7116H103.326L104.796 39.1576L106.42 33.7116H107.75L109.388 39.1576L110.844 33.7116H112.034L110.004 40.6556H108.8L107.092 34.9296L105.384 40.6556H104.18ZM115.659 40.6556C115.025 40.6556 114.525 40.5016 114.161 40.1936C113.797 39.8856 113.615 39.3302 113.615 38.5276V34.7056H112.411V33.7116H113.615L113.769 32.0456H114.791V33.7116H116.835V34.7056H114.791V38.5276C114.791 38.9662 114.88 39.2649 115.057 39.4236C115.235 39.5729 115.547 39.6476 115.995 39.6476H116.723V40.6556H115.659ZM117.909 40.6556V30.5756H119.085V34.9016C119.319 34.4722 119.65 34.1409 120.079 33.9076C120.509 33.6649 120.975 33.5436 121.479 33.5436C122.282 33.5436 122.926 33.7956 123.411 34.2996C123.897 34.7942 124.139 35.5596 124.139 36.5956V40.6556H122.977V36.7216C122.977 35.2749 122.394 34.5516 121.227 34.5516C120.621 34.5516 120.112 34.7709 119.701 35.2096C119.291 35.6389 119.085 36.2549 119.085 37.0576V40.6556H117.909Z" fill="#9E9E9E"/>
<path d="M28.2363 71.9867V69.8784C29.4939 68.8797 30.696 67.8718 31.8426 66.8547C32.9892 65.8375 34.0063 64.8389 34.894 63.8587C35.8002 62.86 36.5122 61.8891 37.0301 60.9459C37.5479 59.9842 37.8068 59.0596 37.8068 58.1719C37.8068 57.5801 37.7051 57.0252 37.5017 56.5074C37.2982 55.9711 36.9653 55.5457 36.503 55.2313C36.0407 54.8985 35.4211 54.732 34.6444 54.732C33.4793 54.732 32.6008 55.1019 32.009 55.8416C31.4357 56.5814 31.1583 57.4691 31.1768 58.5047H28.3195C28.338 57.1362 28.6247 55.9896 29.1795 55.0649C29.7528 54.1402 30.511 53.4374 31.4542 52.9566C32.4159 52.4758 33.4978 52.2354 34.6999 52.2354C36.5307 52.2354 37.9918 52.7532 39.0829 53.7888C40.1925 54.806 40.7473 56.23 40.7473 58.0609C40.7473 59.152 40.4792 60.2339 39.9428 61.3065C39.425 62.3792 38.7407 63.4148 37.89 64.4135C37.0578 65.3937 36.1609 66.3184 35.1992 67.1876C34.2375 68.0568 33.3221 68.8428 32.4529 69.5455H41.3299V71.9867H28.2363ZM50.3859 72.3196C48.629 72.3196 47.1125 71.9035 45.8364 71.0713C44.5789 70.2205 43.6079 69.0462 42.9237 67.5482C42.2579 66.0317 41.925 64.2748 41.925 62.2775C41.925 60.2801 42.2579 58.5325 42.9237 57.0345C43.6079 55.518 44.5789 54.3436 45.8364 53.5114C47.1125 52.6607 48.629 52.2354 50.3859 52.2354C52.1428 52.2354 53.65 52.6607 54.9076 53.5114C56.1652 54.3436 57.1269 55.518 57.7926 57.0345C58.4769 58.5325 58.8191 60.2801 58.8191 62.2775C58.8191 64.2748 58.4769 66.0317 57.7926 67.5482C57.1269 69.0462 56.1652 70.2205 54.9076 71.0713C53.65 71.9035 52.1428 72.3196 50.3859 72.3196ZM50.3859 69.6842C51.44 69.6842 52.374 69.3883 53.1877 68.7965C54.0199 68.2047 54.6672 67.354 55.1295 66.2444C55.5919 65.1348 55.8231 63.8125 55.8231 62.2775C55.8231 60.7425 55.5919 59.4202 55.1295 58.3106C54.6672 57.2009 54.0199 56.3502 53.1877 55.7584C52.374 55.1666 51.44 54.8707 50.3859 54.8707C49.3133 54.8707 48.3701 55.1666 47.5563 55.7584C46.7426 56.3502 46.1046 57.2009 45.6422 58.3106C45.1799 59.4202 44.9487 60.7425 44.9487 62.2775C44.9487 63.8125 45.1799 65.1348 45.6422 66.2444C46.1046 67.354 46.7426 68.2047 47.5563 68.7965C48.3701 69.3883 49.3133 69.6842 50.3859 69.6842ZM57.8447 75.2601L59.4536 68.7133H62.3664L59.8142 75.2601H57.8447ZM70.7191 72.3196C69.2951 72.3196 68.093 72.0514 67.1129 71.5151C66.1327 70.9788 65.3374 70.2668 64.7272 69.3791C64.1354 68.4914 63.71 67.4927 63.4511 66.3831C63.1922 65.2735 63.0627 64.1361 63.0627 62.971C63.0627 60.8257 63.3586 58.9486 63.9504 57.3396C64.5607 55.7307 65.4299 54.4823 66.558 53.5946C67.6862 52.6885 69.0547 52.2354 70.6637 52.2354C71.9397 52.2354 73.0309 52.485 73.9371 52.9844C74.8432 53.4837 75.546 54.1495 76.0453 54.9817C76.5632 55.8139 76.8776 56.7201 76.9885 57.7003H74.2422C74.0758 56.7386 73.6781 55.9988 73.0493 55.481C72.4206 54.9632 71.6161 54.7043 70.6359 54.7043C69.2859 54.7043 68.167 55.3423 67.2793 56.6184C66.4101 57.876 65.9477 59.8178 65.8923 62.4439C66.3361 61.6302 67.0204 60.9367 67.9451 60.3634C68.8883 59.7901 69.9701 59.5034 71.1907 59.5034C72.2819 59.5034 73.299 59.7623 74.2422 60.2801C75.2039 60.798 75.9806 61.5285 76.5724 62.4717C77.1827 63.3963 77.4879 64.4967 77.4879 65.7728C77.4879 66.9009 77.2104 67.9643 76.6556 68.963C76.1008 69.9616 75.3148 70.7754 74.2977 71.4041C73.299 72.0144 72.1062 72.3196 70.7191 72.3196ZM70.5527 69.7674C71.3294 69.7674 72.0229 69.601 72.6332 69.2681C73.2435 68.9352 73.7244 68.4821 74.0758 67.9088C74.4271 67.317 74.6028 66.6512 74.6028 65.9115C74.6028 64.7279 74.2145 63.7847 73.4377 63.0819C72.6795 62.3792 71.7086 62.0278 70.525 62.0278C69.7482 62.0278 69.0454 62.2035 68.4167 62.5549C67.8064 62.9063 67.3255 63.3778 66.9741 63.9696C66.6228 64.543 66.4471 65.181 66.4471 65.8838C66.4471 66.642 66.6228 67.317 66.9741 67.9088C67.344 68.4821 67.8341 68.9352 68.4444 69.2681C69.0732 69.601 69.776 69.7674 70.5527 69.7674ZM88.3022 71.9867V68.103H78.5652V65.7728L87.8306 52.5682H91.2149V65.5509H93.9335V68.103H91.2149V71.9867H88.3022ZM81.7554 65.5509H88.4686V55.8139L81.7554 65.5509ZM94.6838 71.9867V69.8784C95.9414 68.8797 97.1435 67.8718 98.2901 66.8547C99.4367 65.8375 100.454 64.8389 101.342 63.8587C102.248 62.86 102.96 61.8891 103.478 60.9459C103.996 59.9842 104.255 59.0596 104.255 58.1719C104.255 57.5801 104.153 57.0252 103.949 56.5074C103.746 55.9711 103.413 55.5457 102.951 55.2313C102.488 54.8985 101.869 54.732 101.092 54.732C99.9268 54.732 99.0483 55.1019 98.4565 55.8416C97.8832 56.5814 97.6058 57.4691 97.6243 58.5047H94.767C94.7855 57.1362 95.0722 55.9896 95.627 55.0649C96.2003 54.1402 96.9585 53.4374 97.9017 52.9566C98.8634 52.4758 99.9453 52.2354 101.148 52.2354C102.978 52.2354 104.439 52.7532 105.531 53.7888C106.64 54.806 107.195 56.23 107.195 58.0609C107.195 59.152 106.927 60.2339 106.391 61.3065C105.873 62.3792 105.188 63.4148 104.338 64.4135C103.506 65.3937 102.609 66.3184 101.647 67.1876C100.685 68.0568 99.7696 68.8428 98.9004 69.5455H107.778V71.9867H94.6838Z" fill="#121212"/>
<path d="M162.598 53.8212H136.598C132.918 53.8212 129.935 56.8048 129.935 60.4851V64.4884C129.935 68.1688 132.918 71.1523 136.598 71.1523H162.598C166.279 71.1523 169.262 68.1688 169.262 64.4884V60.4851C169.262 56.8048 166.279 53.8212 162.598 53.8212Z" fill="#DAFFE9"/>
<path d="M137.078 63.5195V62.8078H138.59V61.3924H139.325V62.8078H140.837V63.5195H139.325V64.9429H138.59V63.5195H137.078ZM144.034 65.4867V64.3672H141.227V63.6954L143.898 59.889H144.874V63.6315H145.658V64.3672H144.874V65.4867H144.034ZM142.147 63.6315H144.082V60.8246L142.147 63.6315ZM147.945 65.5827C147.577 65.5827 147.263 65.5107 147.001 65.3667C146.74 65.2228 146.535 65.0309 146.386 64.791C146.242 64.5511 146.154 64.2899 146.122 64.0073H146.913C146.961 64.2845 147.076 64.4978 147.257 64.647C147.439 64.7963 147.67 64.871 147.953 64.871C148.342 64.871 148.662 64.6897 148.913 64.3272C149.169 63.9593 149.304 63.3969 149.32 62.6399C149.193 62.8744 148.993 63.0744 148.721 63.2396C148.454 63.4049 148.145 63.4875 147.793 63.4875C147.479 63.4875 147.183 63.4129 146.905 63.2636C146.628 63.1143 146.404 62.9064 146.234 62.6399C146.063 62.368 145.978 62.0481 145.978 61.6803C145.978 61.3551 146.058 61.0485 146.218 60.7607C146.378 60.4728 146.602 60.2409 146.889 60.065C147.183 59.8837 147.529 59.7931 147.929 59.7931C148.34 59.7931 148.686 59.8704 148.969 60.025C149.251 60.1796 149.478 60.3848 149.648 60.6407C149.819 60.8966 149.942 61.1845 150.016 61.5044C150.096 61.8242 150.136 62.1521 150.136 62.4879C150.136 63.1064 150.048 63.6475 149.872 64.1113C149.702 64.5751 149.454 64.9376 149.129 65.1988C148.803 65.4547 148.409 65.5827 147.945 65.5827ZM147.985 62.7598C148.209 62.7598 148.409 62.7092 148.585 62.6079C148.761 62.5066 148.899 62.3733 149.001 62.2081C149.107 62.0375 149.161 61.8509 149.161 61.6483C149.161 61.4297 149.107 61.2378 149.001 61.0725C148.899 60.9019 148.758 60.7687 148.577 60.6727C148.401 60.5767 148.201 60.5288 147.977 60.5288C147.753 60.5288 147.553 60.5767 147.377 60.6727C147.201 60.7687 147.06 60.9019 146.953 61.0725C146.852 61.2378 146.802 61.4271 146.802 61.6403C146.802 61.9815 146.913 62.2534 147.137 62.456C147.361 62.6585 147.644 62.7598 147.985 62.7598ZM152.958 65.5827C152.451 65.5827 152.014 65.4627 151.646 65.2228C151.284 64.9776 151.004 64.639 150.807 64.2072C150.615 63.7701 150.519 63.2636 150.519 62.6879C150.519 62.1121 150.615 61.6083 150.807 61.1765C151.004 60.7393 151.284 60.4008 151.646 60.1609C152.014 59.9157 152.451 59.7931 152.958 59.7931C153.464 59.7931 153.899 59.9157 154.261 60.1609C154.624 60.4008 154.901 60.7393 155.093 61.1765C155.29 61.6083 155.389 62.1121 155.389 62.6879C155.389 63.2636 155.29 63.7701 155.093 64.2072C154.901 64.639 154.624 64.9776 154.261 65.2228C153.899 65.4627 153.464 65.5827 152.958 65.5827ZM152.958 64.823C153.261 64.823 153.531 64.7377 153.765 64.5671C154.005 64.3965 154.192 64.1513 154.325 63.8314C154.458 63.5115 154.525 63.1303 154.525 62.6879C154.525 62.2454 154.458 61.8642 154.325 61.5443C154.192 61.2245 154.005 60.9792 153.765 60.8086C153.531 60.638 153.261 60.5528 152.958 60.5528C152.648 60.5528 152.377 60.638 152.142 60.8086C151.907 60.9792 151.723 61.2245 151.59 61.5443C151.457 61.8642 151.39 62.2454 151.39 62.6879C151.39 63.1303 151.457 63.5115 151.59 63.8314C151.723 64.1513 151.907 64.3965 152.142 64.5671C152.377 64.7377 152.648 64.823 152.958 64.823ZM157.013 62.5599C156.763 62.5599 156.536 62.5039 156.333 62.392C156.136 62.28 155.979 62.1228 155.862 61.9202C155.744 61.7123 155.686 61.4644 155.686 61.1765C155.686 60.8939 155.744 60.6514 155.862 60.4488C155.979 60.2409 156.139 60.0809 156.341 59.969C156.544 59.857 156.771 59.8011 157.021 59.8011C157.266 59.8011 157.488 59.857 157.685 59.969C157.887 60.0809 158.047 60.2409 158.165 60.4488C158.282 60.6514 158.341 60.8939 158.341 61.1765C158.341 61.4644 158.282 61.7123 158.165 61.9202C158.047 62.1228 157.887 62.28 157.685 62.392C157.488 62.5039 157.264 62.5599 157.013 62.5599ZM156.613 65.4867L159.82 59.889H160.652L157.453 65.4867H156.613ZM157.013 61.9522C157.184 61.9522 157.33 61.8882 157.453 61.7602C157.581 61.627 157.645 61.4324 157.645 61.1765C157.645 60.9206 157.584 60.7287 157.461 60.6007C157.338 60.4675 157.189 60.4008 157.013 60.4008C156.843 60.4008 156.693 60.4675 156.565 60.6007C156.437 60.7287 156.373 60.9206 156.373 61.1765C156.373 61.4324 156.435 61.627 156.557 61.7602C156.685 61.8882 156.837 61.9522 157.013 61.9522ZM160.3 65.5827C160.049 65.5827 159.823 65.5267 159.62 65.4147C159.423 65.3028 159.266 65.1455 159.148 64.9429C159.031 64.735 158.972 64.4871 158.972 64.1992C158.972 63.9167 159.031 63.6715 159.148 63.4635C159.266 63.2556 159.425 63.0957 159.628 62.9837C159.831 62.8718 160.057 62.8158 160.308 62.8158C160.553 62.8158 160.774 62.8718 160.971 62.9837C161.174 63.0957 161.334 63.2556 161.451 63.4635C161.569 63.6715 161.627 63.9167 161.627 64.1992C161.627 64.4871 161.569 64.735 161.451 64.9429C161.334 65.1455 161.174 65.3028 160.971 65.4147C160.774 65.5267 160.55 65.5827 160.3 65.5827ZM160.3 64.9669C160.47 64.9669 160.617 64.9029 160.74 64.775C160.868 64.647 160.931 64.4551 160.931 64.1992C160.931 63.9433 160.87 63.7514 160.748 63.6235C160.625 63.4902 160.476 63.4236 160.3 63.4236C160.129 63.4236 159.98 63.4902 159.852 63.6235C159.724 63.7514 159.66 63.9433 159.66 64.1992C159.66 64.4551 159.721 64.647 159.844 64.775C159.972 64.9029 160.124 64.9669 160.3 64.9669Z" fill="#0E803B"/>
<path fill-rule="evenodd" clip-rule="evenodd" d="M34.9851 118.302C39.5856 118.302 43.315 122.031 43.315 126.632V153.954C43.315 158.554 39.5856 162.284 34.9851 162.284C30.3847 162.284 26.6553 158.554 26.6553 153.954V126.632C26.6553 122.031 30.3847 118.302 34.9851 118.302Z" fill="#7551DC"/>
<path fill-rule="evenodd" clip-rule="evenodd" d="M66.4724 108.306C71.0729 108.306 74.8023 112.036 74.8023 116.636V153.954C74.8023 158.554 71.0729 162.284 66.4724 162.284C61.872 162.284 58.1426 158.554 58.1426 153.954V116.636C58.1426 112.036 61.872 108.306 66.4724 108.306Z" fill="#7551DC"/>
<path fill-rule="evenodd" clip-rule="evenodd" d="M97.9588 103.641C102.559 103.641 106.289 107.371 106.289 111.971V153.954C106.289 158.554 102.559 162.284 97.9588 162.284C93.3583 162.284 89.6289 158.554 89.6289 153.954V111.971C89.6289 107.371 93.3583 103.641 97.9588 103.641Z" fill="#7551DC"/>
<path fill-rule="evenodd" clip-rule="evenodd" d="M129.446 87.6457C134.047 87.6457 137.776 91.3751 137.776 95.9756V153.954C137.776 158.554 134.047 162.284 129.446 162.284C124.846 162.284 121.116 158.554 121.116 153.954V95.9756C121.116 91.3751 124.846 87.6457 129.446 87.6457Z" fill="#7551DC"/>
<path fill-rule="evenodd" clip-rule="evenodd" d="M160.932 87.6481C165.533 87.6481 169.262 91.3775 169.262 95.9779V153.954C169.262 158.554 165.533 162.284 160.932 162.284C156.332 162.284 152.603 158.554 152.603 153.954V95.9779C152.603 91.3775 156.332 87.6481 160.932 87.6481Z" fill="#7551DC"/>
<path d="M194.809 132H81.8751C63.1664 132 48 147.166 48 165.875C48 184.584 63.1664 199.75 81.8751 199.75H194.809C213.518 199.75 228.684 184.584 228.684 165.875C228.684 147.166 213.518 132 194.809 132Z" fill="white"/>
<path d="M81.2704 187.541C93.0177 187.541 102.541 178.018 102.541 166.27C102.541 154.523 93.0177 145 81.2704 145C69.5231 145 60 154.523 60 166.27C60 178.018 69.5231 187.541 81.2704 187.541Z" fill="#FFCC6A"/>
<path d="M72.0791 166.642L81.3792 157.342M81.3792 157.342L90.6794 166.642M81.3792 157.342V175.942" stroke="#7551DC" stroke-width="3.15117" stroke-linecap="round" stroke-linejoin="round"/>
<path d="M111.254 159.17V150.77H116.366V151.598H112.262V154.55H115.754V155.366H112.262V159.17H111.254ZM119.698 159.314C119.138 159.314 118.634 159.186 118.186 158.93C117.738 158.674 117.382 158.314 117.118 157.85C116.862 157.378 116.734 156.826 116.734 156.194C116.734 155.562 116.866 155.014 117.13 154.55C117.394 154.078 117.75 153.714 118.198 153.458C118.654 153.202 119.162 153.074 119.722 153.074C120.282 153.074 120.786 153.202 121.234 153.458C121.682 153.714 122.034 154.078 122.29 154.55C122.554 155.014 122.686 155.562 122.686 156.194C122.686 156.826 122.554 157.378 122.29 157.85C122.026 158.314 121.666 158.674 121.21 158.93C120.762 159.186 120.258 159.314 119.698 159.314ZM119.698 158.45C120.042 158.45 120.362 158.366 120.658 158.198C120.954 158.03 121.194 157.778 121.378 157.442C121.562 157.106 121.654 156.69 121.654 156.194C121.654 155.698 121.562 155.282 121.378 154.946C121.202 154.61 120.966 154.358 120.67 154.19C120.374 154.022 120.058 153.938 119.722 153.938C119.378 153.938 119.058 154.022 118.762 154.19C118.466 154.358 118.226 154.61 118.042 154.946C117.858 155.282 117.766 155.698 117.766 156.194C117.766 156.69 117.858 157.106 118.042 157.442C118.226 157.778 118.462 158.03 118.75 158.198C119.046 158.366 119.362 158.45 119.698 158.45ZM123.728 159.17V150.53H124.736V159.17H123.728ZM126.028 159.17V150.53H127.036V159.17H126.028ZM131.04 159.314C130.48 159.314 129.976 159.186 129.528 158.93C129.08 158.674 128.724 158.314 128.46 157.85C128.204 157.378 128.076 156.826 128.076 156.194C128.076 155.562 128.208 155.014 128.472 154.55C128.736 154.078 129.092 153.714 129.54 153.458C129.996 153.202 130.504 153.074 131.064 153.074C131.624 153.074 132.128 153.202 132.576 153.458C133.024 153.714 133.376 154.078 133.632 154.55C133.896 155.014 134.028 155.562 134.028 156.194C134.028 156.826 133.896 157.378 133.632 157.85C133.368 158.314 133.008 158.674 132.552 158.93C132.104 159.186 131.6 159.314 131.04 159.314ZM131.04 158.45C131.384 158.45 131.704 158.366 132 158.198C132.296 158.03 132.536 157.778 132.72 157.442C132.904 157.106 132.996 156.69 132.996 156.194C132.996 155.698 132.904 155.282 132.72 154.946C132.544 154.61 132.308 154.358 132.012 154.19C131.716 154.022 131.4 153.938 131.064 153.938C130.72 153.938 130.4 154.022 130.104 154.19C129.808 154.358 129.568 154.61 129.384 154.946C129.2 155.282 129.108 155.698 129.108 156.194C129.108 156.69 129.2 157.106 129.384 157.442C129.568 157.778 129.804 158.03 130.092 158.198C130.388 158.366 130.704 158.45 131.04 158.45ZM136.047 159.17L134.307 153.218H135.315L136.575 157.886L137.967 153.218H139.107L140.511 157.886L141.759 153.218H142.779L141.039 159.17H140.007L138.543 154.262L137.079 159.17H136.047ZM145.987 159.314C145.419 159.314 144.915 159.186 144.475 158.93C144.035 158.666 143.687 158.302 143.431 157.838C143.183 157.374 143.059 156.826 143.059 156.194C143.059 155.57 143.183 155.026 143.431 154.562C143.679 154.09 144.023 153.726 144.463 153.47C144.911 153.206 145.427 153.074 146.011 153.074C146.587 153.074 147.083 153.206 147.499 153.47C147.923 153.726 148.247 154.066 148.471 154.49C148.695 154.914 148.807 155.37 148.807 155.858C148.807 155.946 148.803 156.034 148.795 156.122C148.795 156.21 148.795 156.31 148.795 156.422H144.055C144.079 156.878 144.183 157.258 144.367 157.562C144.559 157.858 144.795 158.082 145.075 158.234C145.363 158.386 145.667 158.462 145.987 158.462C146.403 158.462 146.751 158.366 147.031 158.174C147.311 157.982 147.515 157.722 147.643 157.394H148.639C148.479 157.946 148.171 158.406 147.715 158.774C147.267 159.134 146.691 159.314 145.987 159.314ZM145.987 153.926C145.507 153.926 145.079 154.074 144.703 154.37C144.335 154.658 144.123 155.082 144.067 155.642H147.811C147.787 155.106 147.603 154.686 147.259 154.382C146.915 154.078 146.491 153.926 145.987 153.926ZM149.783 159.17V153.218H150.695L150.779 154.358C150.963 153.966 151.243 153.654 151.619 153.422C151.995 153.19 152.459 153.074 153.011 153.074V154.13H152.735C152.383 154.13 152.059 154.194 151.763 154.322C151.467 154.442 151.231 154.65 151.055 154.946C150.879 155.242 150.791 155.65 150.791 156.17V159.17H149.783ZM156.062 159.314C155.35 159.314 154.758 159.134 154.286 158.774C153.814 158.414 153.538 157.926 153.458 157.31H154.49C154.554 157.622 154.718 157.894 154.982 158.126C155.254 158.35 155.618 158.462 156.074 158.462C156.498 158.462 156.81 158.374 157.01 158.198C157.21 158.014 157.31 157.798 157.31 157.55C157.31 157.19 157.178 156.95 156.914 156.83C156.658 156.71 156.294 156.602 155.822 156.506C155.502 156.442 155.182 156.35 154.862 156.23C154.542 156.11 154.274 155.942 154.058 155.726C153.842 155.502 153.734 155.21 153.734 154.85C153.734 154.33 153.926 153.906 154.31 153.578C154.702 153.242 155.23 153.074 155.894 153.074C156.526 153.074 157.042 153.234 157.442 153.554C157.85 153.866 158.086 154.314 158.15 154.898H157.154C157.114 154.594 156.982 154.358 156.758 154.19C156.542 154.014 156.25 153.926 155.882 153.926C155.522 153.926 155.242 154.002 155.042 154.154C154.85 154.306 154.754 154.506 154.754 154.754C154.754 154.994 154.878 155.182 155.126 155.318C155.382 155.454 155.726 155.57 156.158 155.666C156.526 155.746 156.874 155.846 157.202 155.966C157.538 156.078 157.81 156.25 158.018 156.482C158.234 156.706 158.342 157.034 158.342 157.466C158.35 158.002 158.146 158.446 157.73 158.798C157.322 159.142 156.766 159.314 156.062 159.314Z" fill="#9E9E9E"/>
<path d="M116.567 183.611C115.633 183.611 114.787 183.445 114.027 183.111C113.28 182.765 112.68 182.285 112.226 181.671C111.786 181.058 111.566 180.338 111.566 179.511C111.566 178.671 111.8 177.918 112.266 177.251C112.747 176.585 113.38 176.131 114.167 175.891C113.46 175.611 112.913 175.205 112.527 174.671C112.14 174.125 111.946 173.525 111.946 172.871C111.946 172.191 112.126 171.571 112.487 171.011C112.847 170.438 113.367 169.985 114.047 169.651C114.74 169.305 115.58 169.131 116.567 169.131C117.553 169.131 118.387 169.305 119.067 169.651C119.76 169.985 120.287 170.438 120.647 171.011C121.007 171.571 121.187 172.191 121.187 172.871C121.187 173.511 120.987 174.111 120.587 174.671C120.2 175.218 119.653 175.625 118.947 175.891C119.733 176.145 120.36 176.605 120.827 177.271C121.307 177.925 121.547 178.671 121.547 179.511C121.547 180.338 121.327 181.058 120.887 181.671C120.447 182.285 119.847 182.765 119.087 183.111C118.34 183.445 117.5 183.611 116.567 183.611ZM116.567 175.211C117.34 175.211 117.947 175.011 118.387 174.611C118.84 174.211 119.067 173.698 119.067 173.071C119.067 172.365 118.847 171.825 118.407 171.451C117.967 171.078 117.353 170.891 116.567 170.891C115.78 170.891 115.167 171.078 114.727 171.451C114.287 171.825 114.067 172.365 114.067 173.071C114.067 173.698 114.287 174.211 114.727 174.611C115.167 175.011 115.78 175.211 116.567 175.211ZM116.567 181.811C117.527 181.811 118.247 181.585 118.727 181.131C119.207 180.665 119.447 180.071 119.447 179.351C119.447 178.551 119.187 177.938 118.667 177.511C118.16 177.071 117.46 176.851 116.567 176.851C115.673 176.851 114.967 177.071 114.447 177.511C113.927 177.938 113.667 178.551 113.667 179.351C113.667 180.071 113.907 180.665 114.387 181.131C114.88 181.585 115.607 181.811 116.567 181.811ZM127.162 183.611C126.242 183.611 125.455 183.431 124.802 183.071C124.148 182.711 123.635 182.231 123.262 181.631C122.902 181.031 122.682 180.378 122.602 179.671H124.582C124.702 180.365 124.988 180.898 125.442 181.271C125.895 181.645 126.475 181.831 127.182 181.831C128.155 181.831 128.955 181.378 129.582 180.471C130.222 179.551 130.562 178.145 130.602 176.251C130.282 176.838 129.782 177.338 129.102 177.751C128.435 178.165 127.662 178.371 126.782 178.371C125.995 178.371 125.255 178.185 124.562 177.811C123.868 177.438 123.308 176.918 122.882 176.251C122.455 175.571 122.242 174.771 122.242 173.851C122.242 173.038 122.442 172.271 122.842 171.551C123.242 170.831 123.802 170.251 124.522 169.811C125.255 169.358 126.122 169.131 127.122 169.131C128.148 169.131 129.015 169.325 129.722 169.711C130.428 170.098 130.995 170.611 131.422 171.251C131.848 171.891 132.155 172.611 132.342 173.411C132.542 174.211 132.642 175.031 132.642 175.871C132.642 177.418 132.422 178.771 131.982 179.931C131.555 181.091 130.935 181.998 130.122 182.651C129.308 183.291 128.322 183.611 127.162 183.611ZM127.262 176.551C127.822 176.551 128.322 176.425 128.762 176.171C129.202 175.918 129.548 175.585 129.802 175.171C130.068 174.745 130.202 174.278 130.202 173.771C130.202 173.225 130.068 172.745 129.802 172.331C129.548 171.905 129.195 171.571 128.742 171.331C128.302 171.091 127.802 170.971 127.242 170.971C126.682 170.971 126.182 171.091 125.742 171.331C125.302 171.571 124.948 171.905 124.682 172.331C124.428 172.745 124.302 173.218 124.302 173.751C124.302 174.605 124.582 175.285 125.142 175.791C125.702 176.298 126.408 176.551 127.262 176.551ZM132.638 185.731L133.798 181.011H135.898L134.058 185.731H132.638ZM141.66 183.611C140.674 183.611 139.82 183.438 139.1 183.091C138.38 182.731 137.807 182.245 137.38 181.631C136.967 181.005 136.714 180.298 136.62 179.511H138.7C138.834 180.178 139.167 180.731 139.7 181.171C140.234 181.598 140.894 181.811 141.68 181.811C142.267 181.811 142.774 181.671 143.2 181.391C143.627 181.098 143.96 180.711 144.2 180.231C144.44 179.751 144.56 179.211 144.56 178.611C144.56 177.665 144.294 176.911 143.76 176.351C143.227 175.778 142.554 175.491 141.74 175.491C141.047 175.491 140.454 175.658 139.96 175.991C139.467 176.311 139.107 176.718 138.88 177.211H136.86L138.06 169.371H145.62V171.231H139.66L138.94 174.971C139.247 174.625 139.667 174.338 140.2 174.111C140.747 173.871 141.36 173.751 142.04 173.751C142.987 173.751 143.8 173.971 144.48 174.411C145.16 174.838 145.68 175.418 146.04 176.151C146.414 176.885 146.6 177.698 146.6 178.591C146.6 179.525 146.4 180.371 146 181.131C145.6 181.891 145.027 182.498 144.28 182.951C143.547 183.391 142.674 183.611 141.66 183.611ZM152.385 183.611C151.478 183.611 150.651 183.451 149.905 183.131C149.171 182.798 148.585 182.298 148.145 181.631C147.705 180.965 147.471 180.131 147.445 179.131H149.545C149.571 179.878 149.825 180.511 150.305 181.031C150.798 181.538 151.491 181.791 152.385 181.791C153.238 181.791 153.891 181.558 154.345 181.091C154.798 180.611 155.025 180.018 155.025 179.311C155.025 178.458 154.718 177.825 154.105 177.411C153.505 176.998 152.765 176.791 151.885 176.791H150.845V175.031H151.905C152.691 175.031 153.325 174.845 153.805 174.471C154.298 174.098 154.545 173.571 154.545 172.891C154.545 172.318 154.351 171.851 153.965 171.491C153.591 171.131 153.058 170.951 152.365 170.951C151.645 170.951 151.078 171.165 150.665 171.591C150.251 172.005 150.025 172.525 149.985 173.151H147.885C147.911 172.338 148.111 171.631 148.485 171.031C148.871 170.431 149.398 169.965 150.065 169.631C150.731 169.298 151.498 169.131 152.365 169.131C153.298 169.131 154.078 169.298 154.705 169.631C155.345 169.951 155.825 170.391 156.145 170.951C156.478 171.498 156.645 172.098 156.645 172.751C156.645 173.498 156.438 174.151 156.025 174.711C155.611 175.271 155.058 175.645 154.365 175.831C155.165 176.005 155.825 176.398 156.345 177.011C156.865 177.611 157.125 178.391 157.125 179.351C157.125 180.125 156.945 180.838 156.585 181.491C156.225 182.131 155.691 182.645 154.985 183.031C154.278 183.418 153.411 183.611 152.385 183.611ZM158.261 183.371V181.851C159.167 181.131 160.034 180.405 160.861 179.671C161.687 178.938 162.421 178.218 163.061 177.511C163.714 176.791 164.227 176.091 164.601 175.411C164.974 174.718 165.161 174.051 165.161 173.411C165.161 172.985 165.087 172.585 164.941 172.211C164.794 171.825 164.554 171.518 164.221 171.291C163.887 171.051 163.441 170.931 162.881 170.931C162.041 170.931 161.407 171.198 160.981 171.731C160.567 172.265 160.367 172.905 160.381 173.651H158.321C158.334 172.665 158.541 171.838 158.941 171.171C159.354 170.505 159.901 169.998 160.581 169.651C161.274 169.305 162.054 169.131 162.921 169.131C164.241 169.131 165.294 169.505 166.081 170.251C166.881 170.985 167.281 172.011 167.281 173.331C167.281 174.118 167.087 174.898 166.701 175.671C166.327 176.445 165.834 177.191 165.221 177.911C164.621 178.618 163.974 179.285 163.281 179.911C162.587 180.538 161.927 181.105 161.301 181.611H167.701V183.371H158.261Z" fill="#121212"/>
<path d="M210.223 168.27H187.223C184.322 168.27 181.971 170.622 181.971 173.522V179.22C181.971 182.121 184.322 184.472 187.223 184.472H210.223C213.123 184.472 215.475 182.121 215.475 179.22V173.522C215.475 170.622 213.123 168.27 210.223 168.27Z" fill="#DAFFE9"/>
<path d="M189.102 178.819V175.285H189.806V178.819H189.102ZM187.591 177.388V176.716H191.325V177.388H187.591ZM192.746 179.371V174.677L191.586 175.061V174.405L193.041 173.774H193.561V179.371H192.746ZM194.268 179.371V178.795C194.646 178.508 195.009 178.217 195.355 177.924C195.702 177.631 196.008 177.34 196.275 177.052C196.547 176.759 196.757 176.474 196.907 176.197C197.061 175.914 197.139 175.645 197.139 175.389C197.139 175.208 197.104 175.04 197.035 174.885C196.971 174.73 196.864 174.605 196.715 174.509C196.571 174.408 196.376 174.357 196.131 174.357C195.896 174.357 195.699 174.408 195.539 174.509C195.385 174.611 195.267 174.746 195.187 174.917C195.107 175.082 195.067 175.266 195.067 175.469H194.3C194.305 175.085 194.388 174.76 194.548 174.493C194.708 174.227 194.926 174.024 195.203 173.885C195.486 173.747 195.8 173.678 196.147 173.678C196.51 173.678 196.824 173.744 197.091 173.877C197.357 174.005 197.565 174.195 197.714 174.445C197.864 174.696 197.938 174.997 197.938 175.349C197.938 175.605 197.885 175.861 197.778 176.117C197.677 176.367 197.536 176.612 197.354 176.852C197.179 177.092 196.981 177.324 196.763 177.548C196.544 177.767 196.318 177.974 196.083 178.172C195.854 178.369 195.633 178.548 195.419 178.707H198.114V179.371H194.268ZM200.689 179.467C200.22 179.467 199.818 179.347 199.482 179.107C199.146 178.862 198.885 178.524 198.698 178.092C198.517 177.655 198.426 177.148 198.426 176.572C198.426 175.997 198.517 175.493 198.698 175.061C198.885 174.624 199.146 174.285 199.482 174.045C199.818 173.8 200.22 173.678 200.689 173.678C201.164 173.678 201.566 173.8 201.897 174.045C202.233 174.285 202.491 174.624 202.672 175.061C202.854 175.493 202.944 175.997 202.944 176.572C202.944 177.148 202.854 177.655 202.672 178.092C202.491 178.524 202.233 178.862 201.897 179.107C201.566 179.347 201.164 179.467 200.689 179.467ZM200.689 178.755C200.966 178.755 201.212 178.667 201.425 178.492C201.643 178.316 201.814 178.065 201.937 177.74C202.065 177.415 202.129 177.025 202.129 176.572C202.129 176.114 202.065 175.725 201.937 175.405C201.814 175.08 201.643 174.832 201.425 174.661C201.212 174.485 200.966 174.397 200.689 174.397C200.412 174.397 200.161 174.485 199.937 174.661C199.719 174.832 199.548 175.08 199.426 175.405C199.303 175.725 199.242 176.114 199.242 176.572C199.242 177.025 199.303 177.415 199.426 177.74C199.548 178.065 199.719 178.316 199.937 178.492C200.161 178.667 200.412 178.755 200.689 178.755ZM204.36 179.371L207.583 173.774H208.367L205.152 179.371H204.36ZM208.159 179.467C207.914 179.467 207.692 179.411 207.495 179.299C207.298 179.187 207.14 179.03 207.023 178.827C206.906 178.619 206.847 178.377 206.847 178.1C206.847 177.812 206.906 177.567 207.023 177.364C207.14 177.161 207.298 177.004 207.495 176.892C207.692 176.78 207.914 176.724 208.159 176.724C208.409 176.724 208.633 176.78 208.83 176.892C209.028 177.004 209.182 177.161 209.294 177.364C209.412 177.567 209.47 177.812 209.47 178.1C209.47 178.377 209.412 178.619 209.294 178.827C209.177 179.03 209.02 179.187 208.822 179.299C208.631 179.411 208.409 179.467 208.159 179.467ZM208.151 178.875C208.273 178.875 208.383 178.846 208.479 178.787C208.58 178.729 208.66 178.643 208.719 178.532C208.782 178.414 208.814 178.268 208.814 178.092C208.814 177.916 208.785 177.772 208.726 177.66C208.668 177.543 208.588 177.455 208.487 177.396C208.391 177.337 208.281 177.308 208.159 177.308C208.041 177.308 207.932 177.337 207.831 177.396C207.735 177.455 207.655 177.543 207.591 177.66C207.532 177.772 207.503 177.916 207.503 178.092C207.503 178.268 207.532 178.414 207.591 178.532C207.655 178.643 207.735 178.729 207.831 178.787C207.932 178.846 208.039 178.875 208.151 178.875ZM204.616 176.428C204.371 176.428 204.15 176.372 203.952 176.26C203.755 176.149 203.598 175.991 203.481 175.789C203.363 175.581 203.305 175.336 203.305 175.053C203.305 174.77 203.363 174.528 203.481 174.325C203.598 174.123 203.755 173.965 203.952 173.853C204.155 173.742 204.379 173.686 204.624 173.686C204.869 173.686 205.091 173.742 205.288 173.853C205.485 173.965 205.642 174.123 205.76 174.325C205.877 174.528 205.936 174.77 205.936 175.053C205.936 175.336 205.877 175.581 205.76 175.789C205.642 175.991 205.485 176.149 205.288 176.26C205.091 176.372 204.867 176.428 204.616 176.428ZM204.616 175.837C204.739 175.837 204.848 175.807 204.944 175.749C205.045 175.69 205.125 175.605 205.184 175.493C205.243 175.376 205.272 175.229 205.272 175.053C205.272 174.877 205.243 174.73 205.184 174.613C205.125 174.496 205.045 174.408 204.944 174.349C204.848 174.291 204.741 174.261 204.624 174.261C204.507 174.261 204.398 174.291 204.296 174.349C204.195 174.408 204.112 174.496 204.048 174.613C203.99 174.73 203.96 174.877 203.96 175.053C203.96 175.224 203.99 175.368 204.048 175.485C204.112 175.602 204.192 175.69 204.288 175.749C204.39 175.807 204.499 175.837 204.616 175.837Z" fill="#0E803B"/>
</svg>
