<svg width="144" height="86" viewBox="0 0 144 86" fill="none" xmlns="http://www.w3.org/2000/svg">
<path fill-rule="evenodd" clip-rule="evenodd" d="M9.13357 42.0184C13.734 42.0184 17.4634 45.7478 17.4634 50.3482L17.4634 77.6702C17.4634 82.2706 13.734 86 9.13357 86C4.53312 86 0.803713 82.2706 0.803712 77.6702L0.803711 50.3482C0.803711 45.7478 4.53312 42.0184 9.13357 42.0184Z" fill="#7551DC"/>
<path fill-rule="evenodd" clip-rule="evenodd" d="M40.7185 32.0225C45.319 32.0225 49.0484 35.7519 49.0484 40.3524L49.0484 77.6702C49.0484 82.2706 45.319 86 40.7185 86C36.1181 86 32.3887 82.2706 32.3887 77.6702L32.3887 40.3524C32.3887 35.7519 36.1181 32.0225 40.7185 32.0225Z" fill="#7551DC"/>
<path fill-rule="evenodd" clip-rule="evenodd" d="M72.3035 27.3578C76.9039 27.3578 80.6334 31.0872 80.6334 35.6876L80.6334 77.6701C80.6334 82.2706 76.9039 86 72.3035 86C67.703 86 63.9736 82.2706 63.9736 77.6701L63.9736 35.6876C63.9736 31.0872 67.703 27.3578 72.3035 27.3578Z" fill="#7551DC"/>
<path fill-rule="evenodd" clip-rule="evenodd" d="M103.888 11.3621C108.489 11.3621 112.218 15.0915 112.218 19.6919V77.6702C112.218 82.2706 108.489 86 103.888 86C99.288 86 95.5586 82.2706 95.5586 77.6702V19.6919C95.5586 15.0915 99.288 11.3621 103.888 11.3621Z" fill="#7551DC"/>
<path fill-rule="evenodd" clip-rule="evenodd" d="M135.473 11.3644C140.074 11.3644 143.803 15.0938 143.803 19.6943L143.803 77.6702C143.803 82.2706 140.074 86 135.473 86C130.873 86 127.144 82.2706 127.144 77.6702L127.144 19.6943C127.144 15.0938 130.873 11.3644 135.473 11.3644Z" fill="#7551DC"/>
</svg>
