<svg width="143" height="75" viewBox="0 0 143 75" fill="none" xmlns="http://www.w3.org/2000/svg">
<path fill-rule="evenodd" clip-rule="evenodd" d="M8.32986 31.0184C12.9303 31.0184 16.6597 34.7478 16.6597 39.3482L16.6597 66.6702C16.6597 71.2706 12.9303 75 8.32986 75C3.72941 75 1.75948e-06 71.2706 1.55839e-06 66.6702L3.6411e-07 39.3482C1.63017e-07 34.7478 3.7294 31.0184 8.32986 31.0184Z" fill="#7551DC"/>
<path fill-rule="evenodd" clip-rule="evenodd" d="M39.8172 21.0225C44.4176 21.0225 48.147 24.7519 48.147 29.3524L48.147 66.6702C48.147 71.2706 44.4176 75 39.8172 75C35.2167 75 31.4873 71.2706 31.4873 66.6702L31.4873 29.3524C31.4873 24.7519 35.2167 21.0225 39.8172 21.0225Z" fill="#7551DC"/>
<path fill-rule="evenodd" clip-rule="evenodd" d="M71.3035 16.3578C75.9039 16.3578 79.6334 20.0872 79.6334 24.6876L79.6334 66.6701C79.6334 71.2706 75.9039 75 71.3035 75C66.703 75 62.9736 71.2706 62.9736 66.6701L62.9736 24.6876C62.9736 20.0872 66.703 16.3578 71.3035 16.3578Z" fill="#7551DC"/>
<path fill-rule="evenodd" clip-rule="evenodd" d="M102.791 0.362061C107.391 0.362061 111.121 4.09147 111.121 8.69192V66.6702C111.121 71.2706 107.391 75 102.791 75C98.1903 75 94.4609 71.2706 94.4609 66.6702V8.69192C94.4609 4.09147 98.1903 0.362061 102.791 0.362061Z" fill="#7551DC"/>
<path fill-rule="evenodd" clip-rule="evenodd" d="M134.277 0.364441C138.878 0.36444 142.607 4.09385 142.607 8.6943L142.607 66.6701C142.607 71.2706 138.878 75 134.277 75C129.677 75 125.947 71.2706 125.947 66.6701L125.947 8.6943C125.947 4.09385 129.677 0.364441 134.277 0.364441Z" fill="#7551DC"/>
</svg>
