<svg width="26" height="26" viewBox="0 0 26 26" fill="none" xmlns="http://www.w3.org/2000/svg">
<path d="M13 8.125C12.0358 8.125 11.0933 8.41091 10.2916 8.94659C9.48991 9.48226 8.86506 10.2436 8.49609 11.1344C8.12711 12.0252 8.03057 13.0054 8.21867 13.9511C8.40677 14.8967 8.87107 15.7654 9.55285 16.4471C10.2346 17.1289 11.1033 17.5932 12.0489 17.7813C12.9946 17.9694 13.9748 17.8729 14.8656 17.5039C15.7564 17.1349 16.5177 16.5101 17.0534 15.7084C17.5891 14.9067 17.875 13.9642 17.875 13C17.8737 11.7075 17.3596 10.4683 16.4457 9.55434C15.5317 8.64039 14.2925 8.12634 13 8.125ZM13 15.4375C12.5179 15.4375 12.0466 15.2945 11.6458 15.0267C11.245 14.7589 10.9325 14.3782 10.748 13.9328C10.5636 13.4874 10.5153 12.9973 10.6093 12.5245C10.7034 12.0516 10.9355 11.6173 11.2764 11.2764C11.6173 10.9355 12.0516 10.7034 12.5245 10.6093C12.9973 10.5153 13.4874 10.5636 13.9328 10.748C14.3782 10.9325 14.7589 11.245 15.0267 11.6458C15.2945 12.0466 15.4375 12.5179 15.4375 13C15.4375 13.6465 15.1807 14.2665 14.7236 14.7236C14.2665 15.1807 13.6465 15.4375 13 15.4375ZM17.875 2.03125H8.125C6.50941 2.03313 4.96054 2.67575 3.81815 3.81815C2.67575 4.96054 2.03313 6.50941 2.03125 8.125V17.875C2.03313 19.4906 2.67575 21.0395 3.81815 22.1819C4.96054 23.3242 6.50941 23.9669 8.125 23.9688H17.875C19.4906 23.9669 21.0395 23.3242 22.1819 22.1819C23.3242 21.0395 23.9669 19.4906 23.9688 17.875V8.125C23.9669 6.50941 23.3242 4.96054 22.1819 3.81815C21.0395 2.67575 19.4906 2.03313 17.875 2.03125ZM21.5312 17.875C21.5312 18.8447 21.146 19.7747 20.4604 20.4604C19.7747 21.146 18.8447 21.5312 17.875 21.5312H8.125C7.1553 21.5312 6.22532 21.146 5.53964 20.4604C4.85396 19.7747 4.46875 18.8447 4.46875 17.875V8.125C4.46875 7.1553 4.85396 6.22532 5.53964 5.53964C6.22532 4.85396 7.1553 4.46875 8.125 4.46875H17.875C18.8447 4.46875 19.7747 4.85396 20.4604 5.53964C21.146 6.22532 21.5312 7.1553 21.5312 8.125V17.875ZM19.9062 7.71875C19.9062 8.04014 19.8109 8.35432 19.6324 8.62155C19.4538 8.88878 19.2 9.09706 18.9031 9.22005C18.6062 9.34305 18.2794 9.37523 17.9642 9.31253C17.649 9.24983 17.3595 9.09506 17.1322 8.8678C16.9049 8.64054 16.7502 8.35099 16.6875 8.03577C16.6248 7.72055 16.657 7.39382 16.7799 7.09689C16.9029 6.79996 17.1112 6.54617 17.3784 6.36761C17.6457 6.18905 17.9599 6.09375 18.2812 6.09375C18.7122 6.09375 19.1256 6.26496 19.4303 6.5697C19.735 6.87445 19.9062 7.28777 19.9062 7.71875Z" fill="#7551DC"/>
</svg>
